<svg width="16" height="16" viewBox="0 0 16 16" fill="none" xmlns="http://www.w3.org/2000/svg">
<g id="graduate-cap_svgrepo.com" clip-path="url(#clip0_1839_7522)">
<g id="Group">
<g id="Group_2">
<path id="Vector" d="M16 10.2328C16 9.9941 15.8595 9.79467 15.6596 9.69597V5.99297C15.7049 5.97585 15.7331 5.93304 15.7326 5.8852C15.7326 5.83735 15.7014 5.79505 15.6576 5.77944L8.01738 3.08466C7.91968 3.04991 7.81292 3.04991 7.71472 3.08466L0.0755471 5.77994C0.0307264 5.79556 0.000510125 5.83786 6.52086e-06 5.8857C-0.000497083 5.93354 0.0282083 5.97635 0.0725255 5.99347L7.70112 8.96272C7.80738 9.00351 7.92472 9.00351 8.03098 8.96272L15.1328 6.19693V9.69546C14.9334 9.79367 14.7929 9.9946 14.7929 10.2318C14.7929 10.4796 14.944 10.6946 15.16 10.7868C14.944 11.2133 14.7929 12.0886 14.7929 12.3384C14.7929 12.6713 15.0633 12.9412 15.3962 12.9412C15.7286 12.9412 15.999 12.6713 15.999 12.3384C15.999 12.0886 15.8474 11.2133 15.6319 10.7868C15.8484 10.6956 16 10.4806 16 10.2328Z" fill="#34C759"/>
<path id="Vector_2" d="M2.46094 7.48877C2.46144 8.34288 2.46194 9.34807 2.46194 9.50772C2.46194 11.0981 4.85557 12.3929 7.86561 12.4739C10.8752 12.3929 13.2688 11.0996 13.2688 9.50772C13.2688 9.34908 13.2688 8.34339 13.2698 7.48877L8.02928 9.52887C7.92302 9.57016 7.80569 9.57016 7.69943 9.52887L2.46094 7.48877Z" fill="#34C759"/>
</g>
</g>
</g>
<defs>
<clipPath id="clip0_1839_7522">
<rect width="16" height="16" fill="white"/>
</clipPath>
</defs>
</svg>
