<svg width="14" height="14" viewBox="0 0 14 14" fill="none" xmlns="http://www.w3.org/2000/svg">
<g id="chat_svgrepo.com" clip-path="url(#clip0_1943_7095)">
<path id="Vector" fill-rule="evenodd" clip-rule="evenodd" d="M4.08268 5.83366C4.08268 5.5115 4.34385 5.25033 4.66602 5.25033H4.67185C4.99401 5.25033 5.25518 5.5115 5.25518 5.83366C5.25518 6.15584 4.99401 6.41699 4.67185 6.41699H4.66602C4.34385 6.41699 4.08268 6.15584 4.08268 5.83366ZM6.41602 5.83366C6.41602 5.5115 6.67718 5.25033 6.99935 5.25033H7.00518C7.32736 5.25033 7.58852 5.5115 7.58852 5.83366C7.58852 6.15584 7.32736 6.41699 7.00518 6.41699H6.99935C6.67718 6.41699 6.41602 6.15584 6.41602 5.83366ZM9.33268 5.25033C9.01051 5.25033 8.74935 5.5115 8.74935 5.83366C8.74935 6.15584 9.01051 6.41699 9.33268 6.41699H9.33852C9.66069 6.41699 9.92185 6.15584 9.92185 5.83366C9.92185 5.5115 9.66069 5.25033 9.33852 5.25033H9.33268ZM4.04428 1.16699C4.05704 1.16699 4.06984 1.16699 4.08268 1.16699H9.9544C10.4715 1.16696 10.9171 1.16694 11.2739 1.21491C11.6563 1.26632 12.0228 1.38226 12.3201 1.67956C12.6174 1.97686 12.7333 2.3434 12.7848 2.72578C12.8327 3.08259 12.8327 3.52815 12.8327 4.04528V7.62204C12.8327 8.13917 12.8327 8.58472 12.7848 8.94154C12.7333 9.32392 12.6174 9.69049 12.3201 9.98775C12.0228 10.2851 11.6563 10.401 11.2739 10.4524C10.9171 10.5004 10.4715 10.5004 9.9544 10.5003H8.16602C8.09975 10.5003 8.03518 10.5213 7.98157 10.5603L5.41016 12.4304C4.85769 12.8322 4.08268 12.4376 4.08268 11.7544V10.5003C3.63121 10.5003 3.17337 10.5128 2.72481 10.4524C2.34243 10.401 1.97589 10.2851 1.67858 9.98775C1.38128 9.69049 1.26535 9.32392 1.21394 8.94154C1.16596 8.58472 1.16599 8.13917 1.16602 7.62204V4.08366C1.16602 4.07082 1.16602 4.05802 1.16602 4.04526C1.16599 3.52815 1.16596 3.08258 1.21394 2.72578C1.26535 2.3434 1.38128 1.97686 1.67858 1.67956C1.97589 1.38226 2.34243 1.26632 2.72481 1.21491C3.08161 1.16694 3.52717 1.16696 4.04428 1.16699Z" fill="#67308C"/>
</g>
<defs>
<clipPath id="clip0_1943_7095">
<rect width="14" height="14" fill="white"/>
</clipPath>
</defs>
</svg>
