<svg width="16" height="16" viewBox="0 0 16 16" fill="none" xmlns="http://www.w3.org/2000/svg">
<g id="language_svgrepo.com" clip-path="url(#clip0_1839_7530)">
<path id="Vector" d="M4.88976 7.33325L4.44531 8.71103H5.3342L4.88976 7.33325Z" fill="#2D8BF3"/>
<path id="Vector_2" d="M13.4659 1.33325H6.35482V3.55547H8.13259V4.44436H2.35482C1.59926 4.44436 1.02148 5.02214 1.02148 5.7777V10.6666C1.02148 11.4221 1.59926 11.9999 2.35482 11.9999H2.79926V14.2666L5.59926 11.9999H8.57704V8.88881H13.4659C14.2215 8.88881 14.7993 8.31103 14.7993 7.55547V2.66659C14.7993 1.91103 14.2215 1.33325 13.4659 1.33325ZM5.82148 10.1777L5.59926 9.46659H4.22148L3.95482 10.1777H2.88815L4.35482 6.22214H5.42148L6.88815 10.1777H5.82148ZM12.577 6.66659V7.55547C11.9993 7.55547 11.377 7.3777 10.8437 7.11103C10.3104 7.3777 9.68815 7.51103 9.06593 7.55547L9.02148 6.66659C9.33259 6.66659 9.64371 6.62214 9.95482 6.53325C9.55482 6.13325 9.28815 5.64436 9.15482 5.11103H10.0882C10.2215 5.51103 10.4882 5.82214 10.7993 6.08881C11.2882 5.68881 11.5993 5.11103 11.6437 4.44436H8.97704V3.55547H10.3104V2.66659H11.1993V3.55547H12.6659L12.7104 3.99992C12.7548 4.93325 12.3993 5.86659 11.7326 6.53325C12.0437 6.62214 12.3104 6.66659 12.577 6.66659Z" fill="#2D8BF3"/>
</g>
<defs>
<clipPath id="clip0_1839_7530">
<rect width="16" height="16" fill="white"/>
</clipPath>
</defs>
</svg>
