<svg width="14" height="14" viewBox="0 0 14 14" fill="none" xmlns="http://www.w3.org/2000/svg">
<g id="language_svgrepo.com" clip-path="url(#clip0_1943_7101)">
<path id="Vector" d="M4.27756 6.41699L3.88867 7.62255H4.66645L4.27756 6.41699Z" fill="#67308C"/>
<path id="Vector_2" d="M11.7834 1.16699H5.5612V3.11144H7.11675V3.88921H2.0612C1.40009 3.88921 0.894531 4.39477 0.894531 5.05588V9.33366C0.894531 9.99477 1.40009 10.5003 2.0612 10.5003H2.45009V12.4837L4.90009 10.5003H7.50564V7.7781H11.7834C12.4445 7.7781 12.9501 7.27255 12.9501 6.61144V2.33366C12.9501 1.67255 12.4445 1.16699 11.7834 1.16699ZM5.09453 8.90588L4.90009 8.28366H3.69453L3.4612 8.90588H2.52786L3.8112 5.44477H4.74453L6.02786 8.90588H5.09453ZM11.0056 5.83366V6.61144C10.5001 6.61144 9.95564 6.45588 9.48898 6.22255C9.02231 6.45588 8.47786 6.57255 7.93342 6.61144L7.89453 5.83366C8.16675 5.83366 8.43898 5.79477 8.7112 5.71699C8.3612 5.36699 8.12786 4.93921 8.0112 4.47255H8.82786C8.94453 4.82255 9.17786 5.09477 9.45009 5.3281C9.87786 4.9781 10.1501 4.47255 10.189 3.88921H7.85564V3.11144H9.02231V2.33366H9.80009V3.11144H11.0834L11.1223 3.50033C11.1612 4.31699 10.8501 5.13366 10.2668 5.71699C10.539 5.79477 10.7723 5.83366 11.0056 5.83366Z" fill="#67308C"/>
</g>
<defs>
<clipPath id="clip0_1943_7101">
<rect width="14" height="14" fill="white"/>
</clipPath>
</defs>
</svg>
